<svg width="70" height="70" viewBox="0 0 70 70" fill="none" xmlns="http://www.w3.org/2000/svg">
<path fill-rule="evenodd" clip-rule="evenodd" d="M35.0176 5.83337C28.06 5.8373 21.3401 8.36605 16.106 12.95C10.7995 17.603 7.29671 23.9726 6.2097 30.9459C5.09866 37.9485 6.45658 45.1196 10.051 51.2313C13.5937 57.2696 19.1806 61.8405 25.801 64.1171C27.271 64.3942 27.7931 63.4667 27.7931 62.6763C27.7931 61.9617 27.7639 59.6079 27.7522 57.1113C19.6439 58.9196 17.9347 53.5821 17.9347 53.5821C17.4098 51.7854 16.262 50.2343 14.6972 49.2071C12.0518 47.3492 14.9014 47.3959 14.9014 47.3959C15.826 47.5242 16.7097 47.8713 17.4826 48.405C18.2585 48.9388 18.903 49.6475 19.3697 50.4759C19.7635 51.2138 20.2972 51.8642 20.9389 52.3863C21.8945 53.1767 23.0695 53.6552 24.3054 53.7574C25.5413 53.8596 26.7789 53.5806 27.8514 52.9579C27.9826 51.4413 28.6389 50.0238 29.7035 48.9621C23.2314 48.2067 16.421 45.6429 16.421 34.1746C16.3759 31.2174 17.45 28.3525 19.428 26.1538C18.5355 23.5729 18.6354 20.7522 19.708 18.2409C19.708 18.2409 22.1551 17.4388 27.726 21.3034C32.4988 19.964 37.5482 19.964 42.321 21.3034C47.8802 17.4388 50.3127 18.2409 50.3127 18.2409C51.3918 20.7434 51.4968 23.5725 50.6072 26.1538C52.5832 28.3533 53.6552 31.2182 53.6085 34.1746C53.6085 45.6634 46.7864 48.1892 40.2968 48.9271C40.9972 49.6584 41.5356 50.5291 41.8769 51.4824C42.2181 52.4358 42.3545 53.4504 42.2772 54.46C42.2772 58.4617 42.2422 61.6846 42.2422 62.6675C42.2422 63.4609 42.7672 64.3942 44.246 64.1025C50.8547 61.8165 56.4285 57.2431 59.961 51.2079C63.5489 45.1014 64.9027 37.9377 63.7906 30.9429C62.7027 23.9761 59.2033 17.6123 53.9031 12.9617C48.6782 8.3801 41.9697 5.84759 35.0206 5.83337H35.0176Z" fill="black"/>
</svg>
